<?xml version="1.0" encoding="UTF-8"?>
<svg xmlns="http://www.w3.org/2000/svg" xmlns:xlink="http://www.w3.org/1999/xlink" width="22pt" height="22pt" viewBox="0 0 22 22" version="1.1">
<g id="surface1">
<path style=" stroke:none;fill-rule:nonzero;fill:rgb(0%,0%,0%);fill-opacity:1;" d="M 22 11 C 22 17.074219 17.074219 22 11 22 C 4.925781 22 0 17.074219 0 11 C 0 4.925781 4.925781 0 11 0 C 17.074219 0 22 4.925781 22 11 Z M 22 11 "/>
<path style=" stroke:none;fill-rule:nonzero;fill:rgb(99.607843%,99.215686%,98.823529%);fill-opacity:1;" d="M 5.054688 13.28125 C 5.046875 11.210938 6.507812 9.472656 8.59375 9.082031 C 8.769531 9.050781 8.820312 8.988281 8.816406 8.816406 C 8.804688 8.351562 8.804688 7.886719 8.816406 7.421875 C 8.820312 7.253906 8.765625 7.152344 8.625 7.058594 C 8.121094 6.734375 7.917969 6.140625 8.101562 5.605469 C 8.292969 5.039062 8.808594 4.691406 9.398438 4.71875 C 9.929688 4.742188 10.414062 5.136719 10.554688 5.660156 C 10.699219 6.183594 10.5 6.757812 10.035156 7.054688 C 9.867188 7.15625 9.816406 7.261719 9.824219 7.449219 C 9.835938 7.914062 9.832031 8.378906 9.824219 8.84375 C 9.824219 8.980469 9.84375 9.050781 10.003906 9.074219 C 10.308594 9.113281 10.605469 9.195312 10.886719 9.316406 C 10.992188 9.359375 11.050781 9.332031 11.121094 9.253906 C 12.109375 8.167969 13.097656 7.082031 14.089844 6 C 14.191406 5.890625 14.164062 5.8125 14.117188 5.699219 C 13.875 5.101562 14.015625 4.457031 14.472656 4.03125 C 14.890625 3.644531 15.578125 3.53125 16.074219 3.773438 C 16.660156 4.058594 16.984375 4.601562 16.941406 5.242188 C 16.890625 6.097656 16.058594 6.742188 15.214844 6.566406 C 15.042969 6.53125 14.941406 6.570312 14.832031 6.695312 C 13.914062 7.707031 12.992188 8.71875 12.066406 9.726562 C 11.953125 9.851562 11.9375 9.914062 12.078125 10.035156 C 13.59375 11.355469 14.003906 13.347656 13.140625 15.164062 C 13.078125 15.300781 13.089844 15.378906 13.195312 15.476562 C 13.449219 15.71875 13.695312 15.964844 13.9375 16.21875 C 14.03125 16.316406 14.121094 16.34375 14.265625 16.308594 C 14.824219 16.167969 15.398438 16.417969 15.675781 16.898438 C 15.960938 17.390625 15.886719 18.007812 15.496094 18.421875 C 15.117188 18.824219 14.496094 18.945312 14.011719 18.703125 C 13.484375 18.4375 13.191406 17.875 13.316406 17.292969 C 13.351562 17.128906 13.316406 17.03125 13.203125 16.925781 C 13 16.734375 12.800781 16.535156 12.609375 16.328125 C 12.496094 16.207031 12.425781 16.203125 12.296875 16.324219 C 10.992188 17.539062 9.476562 17.855469 7.808594 17.261719 C 6.148438 16.671875 5.058594 15.058594 5.054688 13.28125 "/>
</g>
</svg>
