<svg width="22px" height="22px" viewBox="0 0 22 22" version="1.1" xmlns="http://www.w3.org/2000/svg" xmlns:xlink="http://www.w3.org/1999/xlink">
    <path d="M22,11 C22,17.074219 17.074219,22 11,22 C4.925781,22 0,17.074219 0,11 C0,4.925781 4.925781,0 11,0 C17.074219,0 22,4.925781 22,11 Z M5.054688,13.28125 C5.058594,15.058594 6.148438,16.671875 7.808594,17.261719 C9.476562,17.855469 10.992188,17.539062 12.296875,16.324219 C12.425781,16.203125 12.496094,16.207031 12.609375,16.328125 C12.800781,16.535156 13,16.734375 13.203125,16.925781 C13.316406,17.03125 13.351562,17.128906 13.316406,17.292969 C13.191406,17.875 13.484375,18.4375 14.011719,18.703125 C14.496094,18.945312 15.117188,18.824219 15.496094,18.421875 C15.886719,18.007812 15.960938,17.390625 15.675781,16.898438 C15.398438,16.417969 14.824219,16.167969 14.265625,16.308594 C14.121094,16.34375 14.03125,16.316406 13.9375,16.21875 C13.695312,15.964844 13.449219,15.71875 13.195312,15.476562 C13.089844,15.378906 13.078125,15.300781 13.140625,15.164062 C14.003906,13.347656 13.59375,11.355469 12.078125,10.035156 C11.9375,9.914062 11.953125,9.851562 12.066406,9.726562 C12.992188,8.71875 13.914062,7.707031 14.832031,6.695312 C14.941406,6.570312 15.042969,6.53125 15.214844,6.566406 C16.058594,6.742188 16.890625,6.097656 16.941406,5.242188 C16.984375,4.601562 16.660156,4.058594 16.074219,3.773438 C15.578125,3.53125 14.890625,3.644531 14.472656,4.03125 C14.015625,4.457031 13.875,5.101562 14.117188,5.699219 C14.164062,5.8125 14.191406,5.890625 14.089844,6 C13.097656,7.082031 12.109375,8.167969 11.121094,9.253906 C11.050781,9.332031 10.992188,9.359375 10.886719,9.316406 C10.605469,9.195312 10.308594,9.113281 10.003906,9.074219 C9.84375,9.050781 9.824219,8.980469 9.824219,8.84375 C9.832031,8.378906 9.835938,7.914062 9.824219,7.449219 C9.816406,7.261719 9.867188,7.15625 10.035156,7.054688 C10.5,6.757812 10.699219,6.183594 10.554688,5.660156 C10.414062,5.136719 9.929688,4.742188 9.398438,4.71875 C8.808594,4.691406 8.292969,5.039062 8.101562,5.605469 C7.917969,6.140625 8.121094,6.734375 8.625,7.058594 C8.765625,7.152344 8.820312,7.253906 8.816406,7.421875 C8.804688,7.886719 8.804688,8.351562 8.816406,8.816406 C8.820312,8.988281 8.769531,9.050781 8.59375,9.082031 C6.507812,9.472656 5.046875,11.210938 5.054688,13.28125 Z"></path>
</svg>