<svg xmlns="http://www.w3.org/2000/svg" xmlns:xlink="http://www.w3.org/1999/xlink" width="22pt" height="22pt" viewBox="0 0 22 22" version="1.1">
<path d="M 11 0.417969 C 5.152344 0.417969 0.417969 5.152344 0.417969 11 C 0.417969 16.847656 5.160156 21.582031 11 21.582031 C 16.847656 21.582031 21.582031 16.839844 21.582031 11 C 21.582031 5.160156 16.847656 0.417969 11 0.417969 Z M 11 20.921875 C 5.519531 20.921875 1.066406 16.480469 1.066406 11 C 1.066406 5.519531 5.519531 1.066406 11 1.066406 C 16.480469 1.066406 20.933594 5.507812 20.933594 11 C 20.921875 16.480469 16.480469 20.921875 11 20.921875 Z M 11 20.921875 "/>
<path d="M 12.300781 11.523438 C 12.125 11.4375 11.738281 11.328125 11.28125 11.308594 C 10.824219 11.289062 10.242188 11.328125 10.242188 11.328125 L 10.292969 13.308594 C 10.292969 13.308594 10.902344 13.308594 11.308594 13.269531 C 11.71875 13.230469 12.136719 13.113281 12.347656 13 C 12.550781 12.882812 12.804688 12.6875 12.792969 12.242188 C 12.773438 11.796875 12.472656 11.609375 12.300781 11.523438 Z M 12.300781 11.523438 "/>
<path d="M 10.980469 10.410156 C 11.320312 10.390625 11.667969 10.300781 11.921875 10.15625 C 12.171875 10.011719 12.320312 9.777344 12.300781 9.449219 C 12.28125 9.109375 12.058594 8.835938 11.667969 8.730469 C 11.289062 8.625 11.027344 8.625 10.746094 8.625 C 10.457031 8.625 10.164062 8.664062 10.164062 8.664062 L 10.203125 10.4375 C 10.214844 10.425781 10.652344 10.425781 10.980469 10.410156 Z M 10.980469 10.410156 "/>
<path d="M 11 3.144531 C 6.664062 3.144531 3.152344 6.65625 3.152344 10.992188 C 3.152344 15.328125 6.664062 18.835938 11 18.835938 C 15.335938 18.835938 18.847656 15.328125 18.847656 10.992188 C 18.847656 6.664062 15.335938 3.144531 11 3.144531 Z M 13.917969 13.765625 C 13.375 14.164062 12.785156 14.25 12.523438 14.289062 C 12.398438 14.308594 12.171875 14.328125 11.929688 14.347656 L 11.96875 15.839844 L 11.046875 15.859375 L 11.007812 14.386719 C 10.835938 14.386719 10.59375 14.394531 10.3125 14.40625 L 10.351562 15.878906 L 9.429688 15.898438 L 9.390625 14.425781 C 8.476562 14.445312 7.574219 14.464844 7.574219 14.464844 L 7.742188 13.355469 C 7.742188 13.355469 8.109375 13.347656 8.292969 13.347656 C 8.476562 13.347656 8.554688 13.328125 8.632812 13.25 C 8.710938 13.171875 8.71875 13.066406 8.71875 12.96875 C 8.71875 12.882812 8.632812 9.398438 8.632812 9.15625 C 8.625 8.914062 8.605469 8.855469 8.496094 8.730469 C 8.382812 8.613281 8.128906 8.605469 7.984375 8.605469 C 7.835938 8.605469 7.449219 8.613281 7.449219 8.613281 L 7.429688 7.652344 C 7.429688 7.652344 8.304688 7.632812 9.246094 7.613281 L 9.207031 6.140625 L 10.128906 6.121094 L 10.164062 7.59375 C 10.417969 7.585938 10.660156 7.585938 10.863281 7.574219 L 10.824219 6.101562 L 11.746094 6.082031 L 11.785156 7.574219 C 12.472656 7.605469 12.988281 7.722656 13.445312 8.042969 C 14.027344 8.457031 14.015625 9.195312 14.007812 9.371094 C 13.996094 9.546875 13.929688 9.882812 13.773438 10.109375 C 13.628906 10.332031 13.25 10.5625 13.25 10.5625 C 13.25 10.5625 13.695312 10.652344 14.015625 10.875 C 14.335938 11.105469 14.578125 11.515625 14.578125 12.125 C 14.578125 12.753906 14.464844 13.355469 13.917969 13.765625 Z M 13.917969 13.765625 "/>
</svg>
