<?xml version="1.0" encoding="UTF-8" standalone="no"?>
<!-- Created with Inkscape (http://www.inkscape.org/) -->
<svg
   xmlns:svg="http://www.w3.org/2000/svg"
   xmlns="http://www.w3.org/2000/svg"
   version="1.0"
   width="679.47827"
   height="881.67249"
   id="svg11382">
  <defs
     id="defs11384" />
  <g
     transform="translate(-48.907487,-55.625885)"
     id="layer1">
    <g
       id="g11476">
      <path
         d="M 474.50888,718.22841 L 303.49547,718.22841 L 303.49547,695.92707 C 303.49523,657.97599 307.79899,627.16496 316.40677,603.49388 C 325.01405,579.82356 340.04029,558.20693 357.06001,538.64392 C 374.07915,519.08181 399.04735,512.31128 458.51794,463.01307 C 490.20889,437.19104 513.79924,385.86077 513.79969,364.34133 C 516.01201,307.41888 499.85986,284.99913 479.23682,264.37609 C 456.56327,244.69892 418.56655,234.30611 388.2379,234.30611 C 360.45869,234.3068 319.77055,242.39482 300.4713,259.67658 C 274.53313,276.95966 235.23383,333.38269 243.42443,390.22235 L 48.907487,391.92457 C 48.907487,234.71058 78.301186,193.22992 147.9116,128.89425 C 215.30899,74.517607 274.44288,55.625885 391.75917,55.625885 C 481.47708,55.625885 553.65645,73.428695 606.08469,109.03174 C 677.29183,157.15646 728.38574,220.21528 728.38574,339.14455 C 728.38505,383.46536 709.23321,429.93093 685.31314,467.47754 C 666.92367,498.38692 624.93803,533.9299 567.10077,571.89382 C 524.2647,597.66242 500.42881,625.01308 490.06113,643.98842 C 479.6925,662.96445 474.50842,687.71109 474.50888,718.22841 L 474.50888,718.22841 z "
         style="font-size:1201.92492676px;font-style:normal;font-weight:normal;text-align:center;text-anchor:middle;fill:#000000;fill-opacity:1;stroke:none;stroke-width:1px;stroke-linecap:butt;stroke-linejoin:miter;stroke-opacity:1;font-family:Bitstream Vera Sans"
         id="path11472" />
      <path
         d="M 482.38298 869.80902 A 94.042557 73.021278 0 1 1  294.29787,869.80902 A 94.042557 73.021278 0 1 1  482.38298 869.80902 z"
         transform="translate(1.106383,-5.5319149)"
         style="fill:#000000;fill-opacity:1;stroke:none;stroke-width:3;stroke-linecap:square;stroke-linejoin:miter;stroke-miterlimit:4;stroke-dasharray:none;stroke-dashoffset:0;stroke-opacity:1"
         id="path11474" />
    </g>
  </g>
</svg>
