<svg xmlns="http://www.w3.org/2000/svg" xmlns:xlink="http://www.w3.org/1999/xlink" width="17pt" height="22pt" viewBox="0 0 17 22" version="1.1">
<path d="M 10.65625 16.527344 L 6.375 16.527344 L 6.375 15.972656 C 6.375 15.023438 6.480469 14.257812 6.699219 13.664062 C 6.914062 13.074219 7.289062 12.535156 7.714844 12.046875 C 8.140625 11.558594 8.765625 11.390625 10.253906 10.160156 C 11.046875 9.515625 11.640625 8.238281 11.640625 7.699219 C 11.695312 6.28125 11.289062 5.722656 10.773438 5.207031 C 10.207031 4.714844 9.253906 4.457031 8.496094 4.457031 C 7.800781 4.457031 6.78125 4.660156 6.296875 5.089844 C 5.648438 5.519531 4.664062 6.929688 4.871094 8.347656 L 0 8.386719 C 0 4.46875 0.734375 3.433594 2.480469 1.828125 C 4.167969 0.472656 5.648438 0 8.582031 0 C 10.832031 0 12.636719 0.445312 13.949219 1.332031 C 15.734375 2.53125 17.011719 4.105469 17.011719 7.070312 C 17.011719 8.175781 16.53125 9.335938 15.933594 10.273438 C 15.472656 11.042969 14.421875 11.929688 12.972656 12.878906 C 11.902344 13.519531 11.304688 14.203125 11.046875 14.675781 C 10.785156 15.148438 10.65625 15.765625 10.65625 16.527344 Z M 10.65625 16.527344 "/>
<path d="M 10.878906 20.171875 C 10.878906 21.175781 9.828125 21.992188 8.527344 21.992188 C 7.226562 21.992188 6.171875 21.175781 6.171875 20.171875 C 6.171875 19.164062 7.226562 18.347656 8.527344 18.347656 C 9.828125 18.347656 10.878906 19.164062 10.878906 20.171875 Z M 10.878906 20.171875 "/>
</svg>
